<?xml version="1.0" encoding="UTF-8" standalone="no"?>
<!DOCTYPE svg PUBLIC "-//W3C//DTD SVG 1.1//EN" "http://www.w3.org/Graphics/SVG/1.1/DTD/svg11.dtd">
<svg width="100%" height="100%" viewBox="0 0 6461 5574" version="1.1" xmlns="http://www.w3.org/2000/svg" xmlns:xlink="http://www.w3.org/1999/xlink" xml:space="preserve" xmlns:serif="http://www.serif.com/" style="fill-rule:evenodd;clip-rule:evenodd;stroke-linejoin:round;stroke-miterlimit:2;">
    <g transform="matrix(1,0,0,1,-27991.641209,-10211.132323)">
        <g transform="matrix(2.666667,0,0,2.666667,27000,9000)">
            <g transform="matrix(1,0,0,1,585.3329,1161.6207)">
                <path d="M0,664.469C34.305,697.629 37.338,697.629 69.31,660.959L69.614,660.609C74.888,654.409 80.357,647.979 84.479,641.109C90.521,630.849 96.587,620.619 102.65,610.399C123.516,575.199 144.347,540.069 164.057,504.229C201.396,436.719 221.932,363.849 226.599,287.229C228.7,251.499 227.3,214.359 220.065,179.549C199.295,80.519 123.218,27.029 44.339,-21.561C5.917,-45.231 -36.449,-45.361 -77.729,-45.491C-108.156,-45.591 -137.993,-45.681 -165.225,-55.191C-169.11,-50.591 -172.752,-46.531 -176.125,-42.771C-182.679,-35.451 -188.214,-29.281 -192.529,-22.491C-194.404,-19.451 -196.533,-16.301 -198.698,-13.091C-206.497,-1.531 -214.76,10.709 -213.298,20.949C-212.01,29.659 -202.268,37.139 -192.519,44.629C-188.147,47.989 -183.773,51.349 -180.16,54.819C-173.884,54.589 -173.396,59.219 -172.931,63.649L-172.926,63.699C-168.533,101.619 -164.281,139.589 -160.028,177.559C-149.822,268.699 -139.609,359.889 -127.419,450.739C-119.951,505.859 -109.683,562.859 -50.641,591.589C-47.141,593.219 -43.64,594.799 -40.14,596.379C-36.639,597.949 -33.139,599.529 -29.638,601.169C-29.124,598.519 -28.379,595.849 -27.635,593.179C-26.016,587.389 -24.405,581.609 -25.204,576.169C-32.523,530.619 -40.146,485.119 -47.765,439.649C-61.282,358.969 -74.79,278.349 -86.58,197.539C-92.306,158.379 -94.563,118.779 -96.971,76.539C-98.096,56.789 -99.254,36.469 -100.815,15.349C-84.202,17.729 -67.946,19.689 -52,21.619C-16.427,25.909 17.608,30.009 50.64,38.239C99.881,50.849 138.386,81.679 142.587,137.279C142.694,138.659 142.802,140.049 142.91,141.439C146.088,182.419 149.358,224.589 142.587,264.579C119.717,401.689 51.807,517.779 -37.339,628.729C-31.57,634.279 -25.694,639.889 -19.764,645.539C-13.221,651.789 -6.611,658.089 0,664.469M970.207,103.159C976.467,96.149 982.737,82.369 979.727,76.099C976.467,69.589 962.187,65.579 952.917,65.329C941.897,65.329 930.117,69.589 919.597,74.099C885.677,88.609 873.367,118.739 860.567,150.109L860.557,150.119C858.327,155.579 856.087,161.079 853.707,166.549C908.017,172.799 937.437,139.849 966.507,107.299C967.737,105.919 968.967,104.539 970.207,103.159M941.897,521.319C947.907,544.119 988.497,562.909 1011.047,555.139C1026.577,549.629 1031.087,539.109 1026.327,523.069C1015.967,489.049 1004.447,443.079 992.757,396.419C979.557,343.769 966.137,290.239 953.917,251.979C940.137,208.889 910.577,197.369 869.237,213.899C880.037,255.039 892.137,308.699 904.297,362.669C917.247,420.119 930.267,477.909 941.897,521.319M718.907,542.359C710.567,513.099 707.017,468.719 703.407,423.509C699.317,372.359 695.137,320.149 683.837,287.559C668.047,242.209 610.927,228.679 575.597,257.749C577.647,261.229 579.917,264.649 582.197,268.069C587.447,275.949 592.697,283.839 595.147,292.569C608.997,342.689 617.217,416.139 625.007,485.719C630.447,534.399 635.687,581.189 642.497,616.779C650.517,658.869 724.427,692.689 753.987,665.379C795.077,627.549 834.667,587.959 873.747,548.129C884.517,537.349 889.777,518.809 872.997,511.049C860.967,505.529 839.427,505.789 829.647,513.299C805.477,531.759 783.067,552.519 758.917,574.899C750.287,582.899 741.427,591.109 732.187,599.489C730.187,590.989 728.477,583.189 726.857,575.829L726.857,575.819C724.227,563.859 721.857,553.069 718.907,542.359M1372.627,115.309L1372.637,115.349C1378.537,170.889 1384.437,226.359 1391.617,281.549C1393.627,296.079 1401.137,313.119 1411.667,322.639C1426.697,335.919 1447.747,340.929 1467.037,328.399C1488.207,314.599 1485.437,292.219 1482.957,272.199C1482.827,271.129 1482.697,270.069 1482.567,269.019C1474.877,200.689 1465.837,132.549 1456.807,64.439L1456.747,63.989C1455.497,54.579 1454.247,45.169 1453.007,35.769C1449.247,6.949 1434.967,-6.081 1406.157,-4.071C1394.907,-3.361 1383.787,-0.481 1373.067,2.289C1368.747,3.409 1364.477,4.509 1360.307,5.449C1363.057,27.249 1365.067,44.029 1366.817,61.069C1368.787,79.149 1370.707,97.239 1372.627,115.309M521.487,-249.104C521.117,-225.762 520.337,-202.419 519.547,-179.077C518.157,-137.781 516.767,-96.481 517.727,-55.181C518.727,-12.341 523.487,31.259 533.757,72.599C542.527,109.169 575.097,127.709 610.927,130.719C647.257,133.729 680.577,120.449 702.377,88.379C712.897,73.099 716.407,54.559 699.867,42.029L699.787,41.969C683.777,29.959 665.507,16.259 645.247,38.269C641.967,41.719 637.057,43.659 630.607,46.219C627.227,47.559 623.417,49.069 619.197,51.049C618.967,42.839 618.747,34.819 618.537,26.949C617.827,0.269 617.157,-24.651 616.187,-49.421C615.687,-64.701 622.447,-71.471 636.987,-75.981C662.787,-83.991 688.097,-93.771 712.647,-105.041C718.617,-107.671 723.357,-113.381 728.077,-119.071C730.087,-121.491 732.097,-123.911 734.197,-126.091C731.947,-128.191 729.767,-130.371 727.587,-132.551L727.577,-132.551C721.967,-138.161 716.387,-143.731 709.887,-147.881C704.377,-151.391 695.857,-151.391 689.097,-150.891C672.227,-149.471 655.477,-147.541 638.237,-145.561L638.227,-145.561C631.147,-144.751 623.987,-143.931 616.687,-143.121C616.687,-151.481 616.777,-159.831 616.857,-168.179L616.857,-168.202C617.027,-184.875 617.187,-201.512 616.687,-218.037C616.187,-238.581 625.707,-243.091 644.997,-243.091C671.807,-243.091 698.867,-246.599 725.427,-250.357C732.187,-251.359 743.217,-259.377 742.967,-262.884C741.957,-270.4 736.447,-280.673 729.937,-283.679C714.647,-290.444 698.117,-295.956 681.577,-297.459C673.407,-298.209 665.177,-297.976 656.957,-297.744C634.957,-297.123 613.067,-296.505 592.637,-314.747C581.867,-324.267 557.557,-322.764 540.527,-319.758C535.617,-318.939 531.987,-311.17 528.247,-303.157C526.257,-298.905 524.237,-294.583 521.987,-291.196C520.427,-288.771 518.027,-286.705 515.947,-284.916L515.947,-284.915C515.027,-284.116 514.157,-283.373 513.467,-282.677C514.607,-277.517 516.047,-272.868 517.387,-268.534C519.567,-261.503 521.487,-255.304 521.487,-249.104M1223.777,-345.145L1223.777,-345.139C1223.677,-333.554 1223.587,-322.572 1219.997,-312.993C1202.957,-268.396 1202.707,-223.549 1217.747,-179.704C1222.957,-164.39 1231.567,-150.321 1240.527,-135.671C1244.907,-128.511 1249.377,-121.211 1253.567,-113.561C1333.747,-202.503 1317.457,-320.008 1224.257,-361.598C1223.857,-356.037 1223.817,-350.526 1223.777,-345.145M1107.987,-281.045L1107.987,-281.054L1107.997,-281.055C1110.867,-303.135 1113.737,-325.164 1114.267,-347.317C1114.767,-373.374 1130.057,-387.655 1149.097,-396.675C1242.797,-441.021 1325.977,-400.433 1378.597,-323.265C1411.787,-274.586 1401.787,-224.219 1391.457,-172.162L1391.077,-170.214L1390.867,-169.181C1381.347,-120.571 1349.527,-92.011 1308.187,-75.231C1234.027,-45.411 1136.817,-101.531 1117.527,-182.71C1113.867,-198.163 1111.317,-213.946 1108.767,-229.694L1108.767,-229.699C1107.477,-237.696 1106.187,-245.683 1104.747,-253.614L1104.497,-252.862C1105.547,-262.275 1106.767,-271.665 1107.987,-281.045M1625.877,-251.359C1646.467,-256.261 1666.597,-262.852 1686.747,-269.449L1686.757,-269.454C1692.357,-271.284 1697.947,-273.115 1703.547,-274.91C1719.837,-280.172 1735.617,-286.185 1725.847,-308.984C1716.827,-329.779 1696.037,-337.045 1676.237,-330.28C1672.317,-328.946 1668.387,-327.601 1664.457,-326.255C1630.747,-314.707 1596.767,-303.069 1561.987,-297.459C1557.577,-296.741 1553.127,-296.413 1548.727,-296.088C1533.167,-294.937 1518.147,-293.827 1506.617,-275.662C1528.517,-256.864 1523.337,-233.808 1518.167,-210.848C1517.077,-205.96 1515.977,-201.077 1515.137,-196.239C1514.307,-191.235 1510.977,-186.514 1507.717,-181.888C1504.127,-176.786 1500.607,-171.8 1500.607,-166.675C1500.857,-137.361 1504.117,-108.051 1507.627,-78.981C1514.637,-18.351 1571.007,25.239 1630.637,14.719C1691.017,3.949 1732.857,-37.141 1770.947,-80.741C1782.217,-93.521 1776.957,-112.811 1761.427,-126.341C1749.387,-136.681 1743.277,-130.361 1736.947,-123.811C1734.847,-121.641 1732.727,-119.441 1730.357,-117.821C1722.277,-112.251 1714.277,-106.611 1706.287,-100.981L1706.277,-100.971C1684.757,-85.821 1663.307,-70.701 1640.657,-57.191C1628.917,-50.281 1615.497,-45.991 1602.057,-41.691L1602.047,-41.691C1595.997,-39.751 1589.947,-37.821 1584.037,-35.641C1583.277,-42.541 1582.387,-49.411 1581.487,-56.281C1579.427,-72.111 1577.377,-87.891 1577.027,-103.791C1576.527,-126.591 1588.047,-141.121 1611.347,-148.891C1634.397,-156.401 1656.697,-167.176 1677.747,-179.202C1695.527,-189.224 1698.037,-210.52 1682.757,-225.303C1681.307,-226.691 1679.847,-228.193 1678.367,-229.717C1667.837,-240.574 1656.207,-252.561 1638.407,-232.568C1632.637,-226.141 1624.157,-222.207 1614.757,-217.842C1609.857,-215.572 1604.717,-213.185 1599.577,-210.27C1597.317,-237.579 1607.087,-246.849 1625.877,-251.359M405.481,345.189C428.417,325.649 454.697,310.029 480.957,294.419C493.417,287.009 505.877,279.599 517.977,271.779C523.337,268.319 527.857,263.309 532.367,258.319L532.377,258.309C534.397,256.069 536.427,253.829 538.517,251.729C535.327,250.409 532.157,248.819 528.997,247.239L528.997,247.229C521.997,243.719 515.037,240.229 507.957,239.709C465.357,236.949 430.287,255.739 396.21,279.539C380.993,290.159 362.416,295.969 344.059,301.709L344.056,301.709C339.443,303.149 334.845,304.589 330.317,306.099C322.716,308.749 314.615,309.779 306.807,310.779C303.55,311.189 300.343,311.599 297.246,312.119C289.479,391.289 305.514,528.839 333.073,595.229C340.59,613.269 354.62,633.059 371.156,641.829C447.827,682.919 542.277,633.309 553.807,546.869C555.307,536.349 544.787,520.319 535.267,513.049C522.987,503.779 509.957,507.539 498.687,522.319C485.557,539.709 470.797,555.829 454.107,574.069C446.267,582.619 438.007,591.649 429.287,601.489C427.187,591.489 425.127,581.869 423.147,572.539C416.117,539.559 409.862,510.219 404.979,480.729C403.977,474.719 411.995,464.699 418.507,460.689C426.527,455.459 435.027,450.939 443.527,446.419C452.557,441.609 461.607,436.799 470.117,431.119C475.177,427.809 478.527,422.079 481.877,416.369C483.337,413.869 484.807,411.369 486.407,409.079C483.687,407.569 481.027,405.829 478.347,404.099C472.147,400.059 465.927,396.019 459.097,394.789C451.707,393.529 443.247,396.179 435.217,398.689C433.717,399.159 432.237,399.619 430.787,400.059C424.877,401.809 419.167,404.079 411.205,407.239L411.2,407.239C406.668,409.039 401.406,411.129 394.958,413.589C396.224,404.039 396.495,394.329 396.748,385.249C397.245,367.399 397.674,351.999 405.481,345.189M890.037,-308.984C893.647,-245.937 896.857,-191.654 900.027,-138.051L901.057,-120.571C902.687,-120.321 904.317,-120.011 905.937,-119.701C907.567,-119.381 909.197,-119.071 910.827,-118.821C916.837,-128.421 922.907,-138.001 928.977,-147.581C941.117,-166.731 953.257,-185.884 964.947,-205.259C983.987,-236.577 978.477,-269.398 955.927,-292.699C947.647,-301.15 932.517,-302.988 915.477,-305.058C907.257,-306.057 898.587,-307.109 890.037,-308.984M804.947,-364.401C813.817,-365.909 821.767,-367.259 829.397,-366.609C836.237,-365.895 843.077,-365.22 849.917,-364.545L849.927,-364.544C881.457,-361.434 912.977,-358.326 943.647,-351.326C1069.927,-322.013 1104.997,-205.76 1019.317,-107.801C999.767,-85.501 981.477,-61.701 967.697,-35.641C929.617,35.259 880.257,19.729 828.647,-13.091C820.627,-18.101 815.617,-32.631 814.867,-43.411C812.367,-84.261 810.437,-125.121 808.497,-165.941L808.497,-165.945C806.547,-206.986 804.607,-247.995 802.087,-288.941C801.227,-305.202 797.857,-321.344 794.277,-338.438L794.277,-338.444C792.677,-346.106 791.037,-353.959 789.567,-362.1C795.027,-362.717 800.127,-363.582 804.947,-364.401M1760.927,210.389C1761.387,174.939 1738.187,148.389 1715.177,122.049C1713.467,120.099 1711.757,118.149 1710.067,116.189C1705.807,111.429 1689.517,109.429 1685.257,113.429C1658.197,138.239 1631.647,163.789 1640.407,206.889C1642.367,216.199 1642.157,225.959 1641.947,235.799C1641.807,242.369 1641.667,248.969 1642.167,255.489C1645.677,298.839 1659.207,337.669 1690.767,369.239C1712.817,391.289 1721.337,391.789 1733.867,363.479C1754.907,316.119 1765.437,266.009 1760.927,210.389M1522.907,229.689C1522.817,227.399 1522.657,224.619 1522.477,221.509L1522.477,221.499C1522.177,216.099 1521.817,209.739 1521.657,203.379C1518.897,122.949 1527.917,103.159 1601.327,74.099C1606.227,72.129 1611.137,70.089 1616.057,68.049L1616.057,68.039C1653.637,52.449 1692.097,36.479 1736.617,45.789C1802.517,59.569 1850.367,114.689 1864.147,179.829C1877.177,241.209 1864.647,297.829 1850.367,354.959C1836.087,413.079 1775.207,450.159 1715.827,442.149C1600.327,426.359 1535.937,356.709 1522.907,229.689M1169.627,97.239C1155.947,111.079 1142.887,124.309 1130.057,137.989C1125.797,142.499 1120.787,150.009 1122.037,154.769C1128.237,178.649 1135.287,202.239 1142.447,226.179L1142.467,226.249C1144.837,234.199 1147.227,242.179 1149.597,250.229C1185.927,222.669 1206.717,133.479 1189.937,76.599C1182.997,83.709 1176.237,90.549 1169.627,97.239M1240.797,290.069C1266.747,300.269 1302.147,322.309 1336.747,343.859C1369.287,364.119 1401.107,383.929 1423.687,393.039C1430.457,395.799 1440.477,402.809 1440.227,407.319C1439.727,414.589 1433.467,423.859 1426.947,427.619C1398.687,443.829 1371.197,434.179 1344.467,424.799C1340.627,423.449 1336.807,422.109 1332.997,420.849C1314.117,414.599 1285.087,394.889 1256.527,375.489C1230.127,357.559 1204.137,339.909 1186.927,333.409C1182.877,331.849 1178.437,331.069 1172.587,330.039C1169.027,329.409 1164.947,328.689 1160.117,327.649C1162.537,349.449 1174.667,407.129 1185.037,456.489L1185.047,456.509C1191.837,488.819 1197.877,517.549 1199.957,530.339C1205.217,562.909 1194.197,576.439 1160.867,573.929C1116.027,570.679 1105.997,559.399 1100.987,514.049C1095.927,469.289 1082.257,394.239 1069.107,321.999L1069.107,321.989C1058.187,262.009 1047.617,203.969 1042.617,166.799C1039.357,142.749 1043.117,123.709 1058.647,104.159C1107.007,43.029 1165.877,10.459 1245.807,27.499C1286.897,36.269 1305.187,58.819 1301.177,100.409C1297.917,133.729 1293.407,166.799 1286.897,199.619C1283.637,216.159 1276.117,231.939 1268.607,246.969C1263.447,256.649 1257.457,265.379 1251.237,274.459C1247.797,279.489 1244.277,284.619 1240.797,290.069M1468.537,457.929C1460.827,467.519 1452.837,476.949 1444.857,486.369C1425.087,509.689 1405.317,533.029 1389.617,558.899C1359.547,608.509 1362.557,611.509 1408.157,646.339C1427.947,661.369 1431.707,658.869 1442.987,637.319C1456.007,612.269 1471.047,587.709 1488.077,565.159C1496.937,553.509 1507.527,543.119 1518.107,532.719C1524.607,526.339 1531.097,519.969 1537.187,513.299C1541.197,508.789 1545.457,497.019 1543.697,495.759C1527.557,483.119 1510.807,471.229 1494.627,459.749L1494.597,459.729C1489.947,456.429 1485.347,453.159 1480.817,449.909C1478.167,451.619 1476.047,452.859 1474.337,453.859C1471.517,455.509 1469.787,456.529 1468.537,457.929M1507.117,750.319C1501.857,714.739 1479.817,698.449 1450.747,687.179C1444.107,684.599 1436.917,683.509 1429.687,682.409C1427.107,682.019 1424.507,681.629 1421.937,681.169C1422.017,684.549 1421.867,687.989 1421.717,691.419C1421.387,698.649 1421.067,705.859 1422.937,712.479C1438.707,769.979 1455.117,827.049 1471.577,884.289C1472.897,888.909 1474.227,893.519 1475.557,898.139C1482.317,921.939 1489.337,945.49 1496.847,969.039C1504.367,992.089 1522.157,1002.859 1544.957,1006.119C1548.997,1006.649 1553.167,1005.699 1557.367,1004.729L1557.377,1004.729C1559.157,1004.319 1560.947,1003.909 1562.747,1003.619C1562.357,1001.819 1562.087,999.949 1561.817,998.089C1561.227,993.959 1560.627,989.859 1558.737,986.579C1542.197,956.259 1529.667,925.449 1531.927,889.869C1532.787,878.019 1532.227,866.049 1531.557,851.459L1531.557,851.449C1531.247,844.759 1530.907,837.519 1530.677,829.489C1528.697,822.759 1526.037,815.329 1523.197,807.379C1517.047,790.169 1510.037,770.539 1507.117,750.319M1888.447,827.979C1883.707,812.329 1878.897,796.679 1874.097,781.019C1861.887,741.269 1849.667,701.449 1838.337,661.369C1826.067,617.779 1800.257,586.959 1758.417,569.919C1753.617,568.039 1748.127,567.679 1742.637,567.319C1740.107,567.149 1737.577,566.979 1735.117,566.669C1735.647,568.799 1736.117,570.979 1736.577,573.159C1737.637,578.159 1738.707,583.179 1740.627,587.709C1742.267,591.529 1744.417,595.149 1746.557,598.749L1746.567,598.749C1749.347,603.429 1752.097,608.059 1753.657,613.019C1758.627,629.229 1763.607,645.439 1768.587,661.659L1768.687,661.989L1768.697,662.009C1796.077,751.169 1823.487,840.419 1849.117,930.209C1854.627,949.749 1862.647,960.519 1880.937,966.289C1902.227,973.049 1907.737,969.289 1903.987,947.74C1897.217,908.159 1889.957,868.569 1882.687,828.989C1884.687,828.989 1886.697,828.489 1888.447,827.979M-32.721,777.369C-47.807,753.099 -65.997,759.199 -83.328,765.009C-84.419,765.379 -85.505,765.739 -86.588,766.099C-108.886,773.369 -126.925,776.869 -143.962,755.329C-153.483,743.549 -172.775,741.049 -177.535,756.829C-180.26,765.609 -180.017,775.039 -179.771,784.599C-179.405,798.769 -179.033,813.219 -188.308,826.229C-188.724,826.789 -187.837,828.109 -186.834,829.599C-186.024,830.809 -185.137,832.129 -184.801,833.249C-183.128,837.789 -181.201,842.279 -179.279,846.759C-175.157,856.369 -171.056,865.929 -169.518,875.839C-167.079,890.959 -165.708,906.319 -164.337,921.689C-162.891,937.889 -161.445,954.099 -158.744,970.039C-151.479,1012.889 -122.165,1040.449 -83.331,1043.949C-50.259,1047.209 7.366,1012.639 16.636,982.069C18.442,976.319 17.128,969.609 15.514,961.359C14.665,957.019 13.733,952.259 13.129,946.99C9.883,949.159 6.961,951.129 4.272,952.939L4.269,952.939C-3.628,958.259 -9.517,962.229 -15.684,965.779C-17.792,967.039 -19.901,968.289 -22.01,969.549L-22.012,969.549C-38.452,979.349 -54.959,989.189 -72.056,997.849C-77.067,1000.359 -90.095,998.349 -90.596,996.099L-90.898,995.009C-95.816,977.319 -100.864,959.149 -100.618,941.229C-100.618,935.219 -84.583,927.449 -74.812,923.939C-25.956,906.149 -12.427,872.329 -40.488,836.249C-15.433,818.209 -16.686,803.429 -32.721,777.369M1649.677,844.019C1650.147,821.029 1651.637,798.039 1653.117,775.049C1654.837,748.429 1656.567,721.819 1656.697,695.199C1656.947,639.579 1639.407,591.469 1583.537,567.419C1578.067,565.129 1571.607,565.189 1565.207,565.259C1562.517,565.289 1559.827,565.309 1557.227,565.159C1557.377,567.449 1557.437,569.759 1557.497,572.069C1557.647,577.839 1557.807,583.599 1559.237,588.969C1560.707,594.019 1562.937,598.929 1565.147,603.829C1568.207,610.589 1571.247,617.319 1572.267,624.289C1577.777,661.119 1581.787,698.449 1585.287,735.529C1587.297,757.109 1588.897,778.719 1590.507,800.329L1590.507,800.339C1593.317,838.189 1596.137,876.029 1601.077,913.669C1607.087,960.519 1644.167,989.839 1686.007,979.809C1724.097,970.539 1761.177,954.509 1795.747,936.219C1824.307,921.189 1831.077,880.349 1813.287,854.289C1788.387,911.599 1738.667,922.569 1683.337,934.779L1683.327,934.779C1674.077,936.819 1664.667,938.899 1655.197,941.229C1654.487,928.379 1653.527,916.24 1652.597,904.589L1652.597,904.559C1650.917,883.289 1649.357,863.599 1649.677,844.019M264.829,822.199L264.83,822.199L264.831,822.209C269.921,848.679 275.013,875.159 280.96,901.389C284.718,917.929 290.481,934.469 297.997,949.499C305.764,965.029 332.071,970.039 342.594,959.019C353.916,947.079 346.802,939.029 339.317,930.559C337.693,928.719 336.051,926.869 334.577,924.949C327.561,916.179 320.797,905.649 318.542,894.879C315.226,878.759 312.746,862.479 310.267,846.219C307.313,826.839 304.361,807.469 300.002,788.399C294.49,764.599 285.971,740.799 274.196,719.249C268.934,709.729 252.899,700.959 241.875,701.209C234.86,701.459 226.091,717.999 222.082,728.769C215.869,745.149 211.212,762.239 206.942,777.909L206.938,777.919C205.527,783.099 204.159,788.119 202.791,792.909C194.196,786.539 186.032,780.129 178.048,773.849L178.045,773.849C160.893,760.369 144.576,747.549 126.625,737.289C90.046,716.489 51.963,740.289 55.22,781.379C58.978,828.989 64.991,876.589 71.756,923.939C78.521,971.549 116.102,998.609 168.967,993.339C151.429,945.49 151.68,897.389 162.202,848.029C166.548,849.559 170.609,851.089 174.494,852.549L174.496,852.549C182.706,855.639 190.127,858.429 197.78,860.309C226.091,866.819 234.359,860.809 240.623,831.989C243.355,819.589 246.263,807.369 249.2,795.029L249.201,795.029L250.078,791.329C250.351,790.189 250.623,789.039 250.895,787.899C252.556,788.059 254.106,788.009 255.693,787.949C256.5,787.929 257.316,787.899 258.161,787.899C260.429,799.319 262.629,810.759 264.829,822.199M1428.447,1072.769C1456.517,1020.149 1446.237,980.819 1397.387,937.719C1385.387,927.069 1372.987,916.869 1360.587,906.669L1360.577,906.659C1345.277,894.069 1329.987,881.489 1315.457,868.069C1256.827,813.199 1277.377,715.489 1353.787,687.179C1371.577,680.409 1375.087,673.649 1359.297,662.119C1348.527,654.109 1337.007,647.089 1325.477,640.579C1295.157,624.289 1279.127,625.549 1258.077,652.349C1239.287,676.409 1223.757,703.459 1209.227,730.519C1187.927,770.109 1203.967,804.679 1229.517,835.749C1237.477,845.469 1246.987,853.829 1256.517,862.199C1257.787,863.319 1259.067,864.439 1260.337,865.569C1271.297,875.459 1282.487,885.139 1293.697,894.829C1316.817,914.819 1339.957,934.829 1361.057,956.759C1384.107,980.569 1377.587,1041.949 1354.037,1064.999C1352.787,1066.249 1350.847,1066.749 1348.907,1067.249C1346.957,1067.759 1345.017,1068.259 1343.767,1069.509C1343.357,1069.969 1342.927,1070.439 1342.497,1070.919C1338.447,1075.389 1333.747,1080.569 1333.747,1085.539C1333.747,1092.309 1336.757,1102.579 1341.767,1105.339C1349.837,1109.719 1358.887,1112.389 1369.707,1115.569L1369.707,1115.579C1374.337,1116.939 1379.277,1118.389 1384.607,1120.119C1389.117,1115.459 1393.987,1110.979 1398.857,1106.499C1410.227,1096.039 1421.607,1085.569 1428.447,1072.769M2020.567,682.239L2020.547,682.209C2004.947,664.229 1989.157,646.039 1972.387,626.799C1982.157,680.409 1990.417,726.009 1998.937,774.619C2023.497,764.599 2046.797,755.079 2074.107,743.799C2055.727,722.759 2038.267,702.639 2020.567,682.239M2124.967,792.409C2119.087,795.299 2113.447,797.929 2107.977,800.479C2098.287,804.989 2089.177,809.239 2080.367,814.199C2057.817,826.979 2035.767,840.259 2014.227,854.789C2010.217,857.549 2007.707,867.069 2008.957,872.329C2011.357,881.479 2014.747,890.359 2018.157,899.289C2020.437,905.279 2022.737,911.289 2024.747,917.429C2026.247,922.189 2027.247,930.709 2024.747,932.459C2020.487,935.719 2011.967,937.469 2007.707,935.469C2006.227,934.709 2004.657,933.939 2003.037,933.139L2003.017,933.129C1992.827,928.109 1980.767,922.159 1978.397,914.169C1968.887,881.619 1944.287,865.289 1919.327,848.729C1917.967,847.829 1916.617,846.929 1915.257,846.019C1914.177,845.269 1912.977,844.599 1911.777,843.939C1909.387,842.599 1906.987,841.259 1905.487,839.259C1904.997,838.639 1904.497,838.009 1903.977,837.369C1903.627,836.949 1903.267,836.519 1902.907,836.079C1898.847,831.159 1894.467,825.859 1894.467,820.719C1894.467,816.709 1903.487,809.949 1909.497,808.689C1933.297,803.429 1938.057,792.659 1931.547,768.099C1914.697,705.259 1900.277,641.679 1885.867,578.149L1885.857,578.139C1883.557,567.969 1881.247,557.789 1878.927,547.629C1877.907,543.039 1878.617,537.989 1879.337,532.879C1879.677,530.449 1880.017,527.999 1880.177,525.579C1882.227,525.959 1884.297,526.239 1886.347,526.529C1891.097,527.189 1895.777,527.839 1899.977,529.589C1950.497,550.739 1986.677,589.939 2022.517,628.769L2023.247,629.549C2036.847,644.179 2049.657,659.529 2062.447,674.859C2074.647,689.469 2086.827,704.059 2099.657,717.999C2121.267,741.479 2143.717,764.129 2166.177,786.769C2173.657,794.319 2181.147,801.869 2188.597,809.439C2189.577,810.499 2190.647,811.499 2191.707,812.509C2194.207,814.869 2196.717,817.239 2198.117,820.219C2201.637,827.459 2204.477,835.049 2207.327,842.689C2207.937,844.299 2208.537,845.909 2209.147,847.529C2205.817,847.069 2202.257,846.919 2198.697,846.759L2198.687,846.759C2190.467,846.399 2182.247,846.039 2176.827,842.019C2164.807,832.339 2153.687,821.099 2142.337,809.639L2142.327,809.629C2136.637,803.889 2130.897,798.089 2124.967,792.409M1093.227,820.469C1092.217,820.719 1091.287,821.029 1090.347,821.349C1090.067,821.439 1089.787,821.529 1089.497,821.619C1088.837,821.839 1088.167,822.049 1087.457,822.219C1086.877,834.499 1086.347,846.719 1085.797,859.439L1085.787,859.519L1085.787,859.609C1085.157,874.109 1084.497,889.259 1083.707,905.899C1102.247,896.379 1115.777,889.369 1130.557,881.599C1116.777,859.049 1104.997,839.759 1093.227,820.469M1220.497,929.459C1232.587,946.229 1244.357,962.529 1255.907,978.549C1270.917,999.369 1285.587,1019.699 1300.177,1039.939C1301.517,1041.839 1302.967,1043.709 1304.417,1045.599C1308.917,1051.439 1313.437,1057.309 1314.957,1063.749C1315.957,1068.009 1303.927,1080.029 1302.427,1079.279C1299.867,1078.019 1297.227,1076.789 1294.567,1075.549L1294.557,1075.539C1282.347,1069.839 1269.607,1063.889 1261.587,1054.229C1241.947,1030.789 1223.727,1006.289 1205.377,981.619L1205.377,981.609C1197.047,970.409 1188.687,959.179 1180.167,947.999C1172.007,951.889 1164.027,955.549 1156.217,959.119L1156.197,959.129C1137.377,967.749 1119.557,975.909 1102.747,985.829C1093.977,991.089 1085.207,1004.869 1085.207,1014.639C1085.387,1042.219 1087.467,1069.799 1089.547,1097.479L1089.547,1097.49C1090.297,1107.519 1091.057,1117.569 1091.717,1127.639C1091.907,1130.429 1091.397,1133.369 1090.917,1136.139L1090.917,1136.149C1090.757,1137.089 1090.597,1138.019 1090.467,1138.909C1052.387,1144.169 1022.067,1122.369 1017.807,1087.549C1014.807,1062.24 1011.797,1036.939 1009.037,1011.379C1008.737,1008.649 1008.527,1005.879 1008.327,1003.109C1007.217,987.839 1006.117,972.669 987.247,965.029C985.737,964.529 987.997,951.499 990.497,945.24C991.967,941.789 994.387,938.559 996.767,935.389C1000.097,930.949 1003.337,926.609 1003.777,921.939C1008.077,861.809 1011.727,801.679 1015.387,741.549L1015.397,741.409C1016.857,717.399 1018.317,693.399 1019.817,669.389C1020.817,654.609 1025.827,646.339 1042.617,654.859C1049.257,658.369 1056.207,661.309 1063.157,664.249C1070.107,667.199 1077.067,670.139 1083.707,673.649C1096.727,680.919 1106.507,689.939 1100.237,708.219C1098.017,714.389 1103.567,724.429 1107.557,731.669L1107.757,732.029C1127.047,766.849 1146.337,801.679 1166.887,835.749C1170.577,841.909 1177.817,846.219 1184.717,850.339L1184.727,850.339C1186.237,851.239 1187.737,852.139 1189.177,853.039C1196.157,857.479 1203.237,861.759 1210.317,866.029L1210.317,866.039C1222.817,873.589 1235.317,881.139 1247.307,889.619C1262.087,900.139 1259.837,910.409 1243.047,917.429C1238.667,919.439 1234.557,921.709 1228.377,925.119C1226.077,926.389 1223.497,927.819 1220.497,929.459M857.207,912.669C858.967,912.919 860.657,913.169 862.347,913.419C864.037,913.669 865.727,913.919 867.487,914.169C870.947,902.879 874.527,891.579 878.107,880.269C886.437,853.949 894.797,827.559 901.807,800.929C904.517,790.779 904.137,779.719 903.757,768.669C903.577,763.349 903.397,758.029 903.557,752.819C899.317,753.469 895.047,754.039 890.797,754.609L890.777,754.609C878.707,756.219 866.687,757.819 855.207,761.339C849.447,763.089 842.427,774.119 842.927,780.379C845.897,815.449 849.967,850.359 854.017,885.109C855.087,894.309 856.167,903.49 857.207,912.669M922.107,1068.759C927.737,1059.859 933.317,1050.969 938.887,1042.069C944.467,1033.179 950.037,1024.289 955.677,1015.389C957.177,1016.019 958.677,1016.579 960.187,1017.149C961.687,1017.709 963.187,1018.269 964.697,1018.899C965.027,1022.069 965.477,1025.24 965.917,1028.409L965.917,1028.419C966.807,1034.769 967.697,1041.109 967.697,1047.459C967.697,1053.669 967.187,1059.959 966.687,1066.24C966.247,1071.609 965.817,1076.969 965.697,1082.289C964.947,1116.109 947.657,1127.379 915.837,1114.859C913.507,1113.899 911.107,1113.089 907.937,1112.019C905.307,1111.139 902.137,1110.069 898.047,1108.589C899.297,1112.329 900.477,1115.769 901.597,1119.019C904.537,1127.549 907.007,1134.729 908.827,1142.169C909.997,1147.24 910.097,1152.619 910.207,1158.059L910.207,1158.069C910.237,1159.609 910.267,1161.159 910.327,1162.709C908.227,1162.789 906.087,1163.059 903.957,1163.329L903.947,1163.329C899.197,1163.929 894.507,1164.519 890.537,1162.959C872.747,1156.199 855.207,1148.429 838.417,1139.659C833.657,1137.159 829.147,1130.889 827.647,1125.379C826.097,1119.749 824.537,1114.119 822.977,1108.479L822.967,1108.459C804.337,1041.199 785.667,973.859 787.057,902.899C787.057,901.269 786.937,899.699 786.807,898.139L786.807,898.129C786.687,896.569 786.557,894.999 786.557,893.379C786.457,882.249 786.347,871.119 786.237,859.999L786.237,859.919C785.797,815.189 785.357,770.429 785.557,725.509C785.557,719.249 791.567,708.729 796.327,707.469C818.627,701.959 841.427,696.449 863.977,695.949C907.567,694.949 943.897,715.989 975.467,743.799C995.007,761.089 992.257,787.649 986.237,809.189C971.437,862.039 954.147,914.049 936.817,966.179C935.087,971.389 933.357,976.609 931.627,981.819C929.907,986.919 928.037,991.99 926.157,997.059C918.207,1018.589 910.277,1040.059 914.337,1063.999C917.087,1065.749 919.597,1067.249 922.107,1068.759M536.297,961.179L536.307,961.169C551.347,929.169 565.457,899.139 577.607,868.319C584.027,852.029 585.197,833.009 586.317,814.909C586.417,813.239 586.517,811.589 586.627,809.949C586.877,804.679 579.857,794.909 574.597,793.659C546.287,787.899 500.437,826.729 502.687,855.289C505.147,884.709 508.657,913.919 512.477,945.629C514.517,962.529 516.637,980.129 518.727,998.859C524.677,985.909 530.557,973.399 536.297,961.179M520.977,1302.519C525.617,1299.459 529.487,1297.009 532.797,1294.909C538.977,1290.999 543.197,1288.329 546.787,1285.229C603.657,1235.869 652.017,1179.249 688.847,1113.349C696.487,1099.679 701.387,1084.379 706.267,1069.159L706.267,1069.149C707.467,1065.409 708.657,1061.679 709.887,1057.979C714.397,1043.949 706.387,1036.189 693.107,1036.189C647.007,1036.939 601.657,1042.699 566.827,1076.019C551.547,1090.549 538.767,1098.319 517.477,1080.279C518.217,1135.609 519.087,1188.349 520.007,1243.229L520.007,1243.259C520.327,1262.669 520.657,1282.349 520.977,1302.519M625.957,980.819C680.827,975.809 723.417,993.589 761.507,1023.659C794.577,1049.719 801.587,1077.029 786.057,1116.109C757.497,1188.019 708.887,1245.889 656.027,1300.509C647.347,1309.329 637.997,1317.569 628.657,1325.799C621.827,1331.829 614.987,1337.859 608.417,1344.109C592.887,1358.639 577.607,1366.149 558.057,1350.369C554.927,1347.759 550.457,1346.599 545.757,1345.379C543.697,1344.839 541.587,1344.289 539.517,1343.599C539.097,1344.559 538.757,1345.519 538.437,1346.439C538.007,1347.689 537.587,1348.859 537.017,1349.869C534.937,1353.499 535.487,1358.419 536.047,1363.329C537.087,1372.639 538.127,1381.949 521.227,1382.439C495.427,1383.189 466.867,1364.899 465.107,1345.359C454.587,1219.079 444.317,1092.559 434.297,966.289C429.027,899.389 424.017,832.749 419.007,765.849C416.757,735.279 418.757,731.529 447.827,738.539C476.387,745.309 501.937,745.309 531.507,739.789C604.157,726.509 676.317,802.679 663.037,874.839C659.837,892.459 653.597,909.589 647.367,926.649C644.837,933.599 642.307,940.539 639.987,947.49C638.037,952.899 635.637,958.389 632.677,965.159C630.697,969.689 628.467,974.789 625.957,980.819M14.286,-520.72C24.257,-565.266 34.706,-609.622 46.571,-653.64C52.166,-674.234 50.593,-689.579 22.989,-698.719C85.249,-718.72 127.843,-704.651 164.451,-653.316C182.297,-628.441 198.907,-602.808 216.418,-575.785L216.419,-575.784L216.422,-575.779C224.473,-563.356 232.714,-550.639 241.352,-537.567C248.232,-551.269 254.939,-564.537 261.529,-577.571C270.398,-595.114 279.053,-612.234 287.626,-629.423C289.212,-632.637 290.583,-635.938 291.944,-639.217L291.945,-639.218C293.447,-642.837 294.939,-646.431 296.7,-649.858C316.236,-688.076 351.343,-690.914 386.603,-665.574C417.667,-643.333 423.137,-617.699 421.077,-583.088C415.397,-489.467 409.741,-395.615 409.376,-301.996C408.685,-156.581 419.047,-11.681 446.807,131.469C450.457,149.409 442.927,158.389 428.647,164.259C419.737,168.039 409.804,170.759 399.943,171.619C360.768,175.509 356.219,171.049 351.624,131.709C347.518,96.589 343.009,61.489 338.498,26.379C328.935,-48.071 319.368,-122.551 313.621,-197.264C309.272,-254.332 309.652,-311.813 310.033,-369.371L310.033,-369.374C310.202,-394.932 310.371,-420.505 310.126,-446.063C310.184,-450.69 309.304,-455.466 304.864,-461.317C302.743,-456.255 300.553,-451.222 298.363,-446.19C292.458,-432.621 286.559,-419.066 282.056,-405.019C273.861,-379.808 254.629,-375.122 232.692,-377.595C205.608,-380.773 192.269,-398.556 188.598,-422.036C185.458,-442.097 177.273,-461.716 168.918,-480.628C159.908,-500.896 149.872,-520.841 139.065,-542.319C134.692,-551.011 130.192,-559.954 125.582,-569.271C123.588,-565.681 121.85,-562.962 120.417,-560.72L120.416,-560.719C118.262,-557.349 116.797,-555.056 116.187,-552.505C85.665,-423.205 50.752,-259.552 55.581,-125.021C56.259,-104.051 47.369,-94.731 28.991,-96.121C9.676,-97.671 -9.461,-102.471 -27.99,-108.241C-32.258,-109.491 -35.743,-120.271 -36.075,-126.711C-40.549,-249.259 -12.342,-402.39 14.286,-520.72" style="fill:rgb(26,26,26);"/>
            </g>
        </g>
    </g>
</svg>
